<?xml version="1.0" encoding="UTF-8"?>
<svg id="Calque_1" data-name="Calque 1" xmlns="http://www.w3.org/2000/svg" viewBox="0 0 250.72 250.72">
  <defs>
    <style>
      .cls-1 {
        fill: #edd600;
      }

      .cls-2 {
        fill: #1d1d1b;
      }
    </style>
  </defs>
  <path class="cls-1" d="m220.14,244.91H30.59c-13.63,0-24.78-11.15-24.78-24.77V30.58c0-13.63,11.15-24.77,24.78-24.77h189.56c13.63,0,24.77,11.14,24.77,24.77v189.56c0,13.62-11.14,24.77-24.77,24.77"/>
  <path class="cls-2" d="m87.69,126.57v17.23h12.05c4.69,0,7.66-.14,8.92-.4,1.93-.35,3.51-1.21,4.73-2.57,1.22-1.36,1.82-3.19,1.82-5.47,0-1.93-.47-3.57-1.41-4.92-.94-1.35-2.29-2.34-4.06-2.95-1.77-.61-5.63-.92-11.54-.92h-10.51Zm0-25.63v14.9h8.53c5.07,0,8.22-.07,9.45-.22,2.23-.27,3.98-1.03,5.25-2.31,1.28-1.27,1.91-2.95,1.91-5.03s-.55-3.61-1.65-4.85c-1.1-1.25-2.73-2.01-4.9-2.27-1.29-.15-4.99-.22-11.12-.22h-7.47Zm-13.01-10.72h25.76c5.1,0,8.9.21,11.41.64,2.51.43,4.75,1.31,6.73,2.66,1.98,1.35,3.63,3.14,4.94,5.39,1.32,2.24,1.98,4.76,1.98,7.54,0,3.02-.81,5.78-2.44,8.31-1.63,2.52-3.84,4.41-6.62,5.67,3.93,1.14,6.95,3.09,9.06,5.85,2.11,2.76,3.17,5.99,3.17,9.71,0,2.93-.68,5.78-2.05,8.55-1.36,2.77-3.22,4.98-5.58,6.64-2.36,1.66-5.27,2.68-8.73,3.06-2.16.23-7.4.38-15.69.44h-21.93v-64.44Z"/>
  <path class="cls-2" d="m136.93,102.56v-11.47h42.25v8.97c-3.49,3.43-7.03,8.35-10.64,14.77-3.6,6.42-6.35,13.24-8.24,20.47-1.89,7.22-2.82,13.68-2.8,19.36h-11.91c.2-8.9,2.05-17.99,5.52-27.25,3.47-9.26,8.11-17.54,13.91-24.84h-28.09Z"/>
</svg>