<?xml version="1.0" encoding="UTF-8"?>
<svg id="Calque_1" data-name="Calque 1" xmlns="http://www.w3.org/2000/svg" viewBox="0 0 250.72 250.72">
  <defs>
    <style>
      .cls-1 {
        fill: #fff;
      }

      .cls-2 {
        fill: #31678d;
      }
    </style>
  </defs>
  <path class="cls-1" d="m241.1,138.73l-102.31,102.3c-7.35,7.35-19.39,7.35-26.74,0L9.74,138.73c-7.35-7.35-7.35-19.39,0-26.74L112.05,9.69c7.35-7.35,19.39-7.35,26.74,0l102.31,102.3c7.35,7.35,7.35,19.39,0,26.74"/>
  <path class="cls-2" d="m85.48,125.15l9.63,3.05c-1.48,5.37-3.93,9.35-7.36,11.96-3.44,2.61-7.79,3.91-13.07,3.91-6.54,0-11.9-2.23-16.11-6.69-4.21-4.46-6.31-10.57-6.31-18.3,0-8.18,2.12-14.54,6.34-19.07,4.23-4.53,9.79-6.8,16.68-6.8,6.02,0,10.91,1.78,14.66,5.34,2.24,2.1,3.92,5.12,5.03,9.05l-9.83,2.35c-.58-2.55-1.8-4.56-3.64-6.04-1.85-1.48-4.09-2.22-6.73-2.22-3.65,0-6.6,1.31-8.88,3.93-2.27,2.62-3.41,6.85-3.41,12.71,0,6.22,1.12,10.65,3.36,13.29,2.24,2.64,5.14,3.96,8.72,3.96,2.64,0,4.91-.84,6.81-2.52,1.9-1.68,3.27-4.32,4.09-7.92"/>
  <polygon class="cls-2" points="103.74 143.24 103.74 94.05 113.4 94.05 133.53 126.9 133.53 94.05 142.76 94.05 142.76 143.24 132.8 143.24 112.96 111.16 112.96 143.24 103.74 143.24"/>
  <path class="cls-2" d="m176.15,125.15v-8.29h21.41v19.59c-2.08,2.01-5.1,3.79-9.04,5.32-3.95,1.53-7.95,2.3-12,2.3-5.14,0-9.63-1.08-13.45-3.24-3.83-2.16-6.7-5.24-8.63-9.26-1.92-4.01-2.88-8.39-2.88-13.1,0-5.12,1.07-9.67,3.22-13.66,2.15-3.98,5.29-7.04,9.43-9.16,3.16-1.64,7.08-2.45,11.78-2.45,6.11,0,10.87,1.28,14.31,3.84,3.43,2.56,5.64,6.1,6.63,10.62l-9.87,1.84c-.69-2.41-2-4.32-3.91-5.72-1.91-1.4-4.3-2.1-7.16-2.1-4.34,0-7.79,1.38-10.35,4.12-2.56,2.76-3.84,6.84-3.84,12.25,0,5.83,1.29,10.21,3.89,13.14,2.6,2.92,6,4.38,10.2,4.38,2.08,0,4.17-.41,6.26-1.23,2.09-.82,3.88-1.8,5.38-2.97v-6.24h-11.37Z"/>
  <path class="cls-2" d="m125.36,7.96c-3.87,0-7.73,1.47-10.68,4.41L12.37,114.68c-2.84,2.84-4.4,6.63-4.4,10.68s1.56,7.84,4.4,10.68l102.31,102.31c5.89,5.89,15.47,5.88,21.36,0l102.31-102.31c2.84-2.84,4.4-6.63,4.4-10.68s-1.56-7.84-4.4-10.68L136.04,12.38c-2.94-2.94-6.81-4.41-10.68-4.41m0,242.4c-5.81,0-11.63-2.22-16.06-6.64L6.99,141.42c-4.27-4.27-6.63-9.98-6.63-16.06s2.36-11.78,6.63-16.06L109.3,7c8.86-8.86,23.26-8.85,32.12,0l102.31,102.3c4.27,4.27,6.63,9.98,6.63,16.06s-2.36,11.78-6.63,16.06l-102.31,102.3c-4.43,4.43-10.25,6.64-16.06,6.64"/>
</svg>