<?xml version="1.0" encoding="UTF-8"?>
<svg id="Calque_1" data-name="Calque 1" xmlns="http://www.w3.org/2000/svg" viewBox="0 0 250.72 250.72">
  <defs>
    <style>
      .cls-1 {
        fill: #fff;
      }

      .cls-2 {
        fill: #1d4828;
      }
    </style>
  </defs>
  <path class="cls-2" d="m245.66,125.36c0,66.45-53.87,120.32-120.32,120.32S5.02,191.81,5.02,125.36,58.89,5.04,125.34,5.04s120.32,53.87,120.32,120.32"/>
  <path class="cls-2" d="m125.36,10.08C61.79,10.08,10.08,61.8,10.08,125.36s51.72,115.28,115.28,115.28,115.28-51.72,115.28-115.28S188.93,10.08,125.36,10.08m0,240.64C56.24,250.72,0,194.48,0,125.36S56.24,0,125.36,0s125.36,56.24,125.36,125.36-56.23,125.36-125.36,125.36"/>
  <polygon class="cls-1" points="75.34 153.46 75.34 88.27 123.67 88.27 123.67 99.3 88.5 99.3 88.5 113.75 121.23 113.75 121.23 124.74 88.5 124.74 88.5 142.48 124.92 142.48 124.92 153.46 75.34 153.46"/>
  <path class="cls-1" d="m133.5,136.7l12.45-1.29c.36,2.82,1.41,5.05,3.16,6.69,1.74,1.64,3.76,2.47,6.05,2.47,2.61,0,4.82-1.06,6.63-3.18,1.81-2.12,2.71-5.31,2.71-9.59,0-4-.9-7-2.69-9-1.8-2-4.13-3-7.01-3-3.59,0-6.8,1.59-9.65,4.76l-10.14-1.47,6.4-33.92h33.04v11.69h-23.56l-1.96,11.07c2.79-1.4,5.63-2.09,8.54-2.09,5.54,0,10.24,2.02,14.09,6.05,3.85,4.03,5.78,9.26,5.78,15.69,0,5.36-1.56,10.15-4.67,14.36-4.24,5.75-10.13,8.63-17.65,8.63-6.02,0-10.93-1.61-14.72-4.85-3.8-3.23-6.06-7.57-6.8-13.03"/>
</svg>