<?xml version="1.0" encoding="UTF-8"?>
<svg id="Calque_1" data-name="Calque 1" xmlns="http://www.w3.org/2000/svg" viewBox="0 0 250.72 250.72">
  <defs>
    <style>
      .cls-1 {
        fill: #fff;
      }

      .cls-2 {
        fill: #2fbdeb;
      }
    </style>
  </defs>
  <path class="cls-1" d="m245.66,125.36c0,66.45-53.87,120.32-120.32,120.32S5.02,191.81,5.02,125.36,58.89,5.04,125.34,5.04s120.32,53.87,120.32,120.32"/>
  <path class="cls-2" d="m125.36,10.08C61.79,10.08,10.08,61.8,10.08,125.36s51.72,115.28,115.28,115.28,115.28-51.72,115.28-115.28S188.93,10.08,125.36,10.08m0,240.64C56.24,250.72,0,194.48,0,125.36S56.24,0,125.36,0s125.36,56.24,125.36,125.36-56.23,125.36-125.36,125.36"/>
  <polygon class="cls-2" points="50.97 153.46 50.97 88.27 99.3 88.27 99.3 99.3 64.13 99.3 64.13 113.75 96.86 113.75 96.86 124.74 64.13 124.74 64.13 142.48 100.55 142.48 100.55 153.46 50.97 153.46"/>
  <path class="cls-2" d="m122.25,105.71c0,2.49.7,4.43,2.11,5.82,1.41,1.39,3.28,2.09,5.63,2.09s4.27-.7,5.69-2.11c1.43-1.41,2.14-3.36,2.14-5.85,0-2.34-.7-4.22-2.11-5.63-1.41-1.41-3.27-2.11-5.58-2.11s-4.31.72-5.73,2.14c-1.43,1.42-2.14,3.31-2.14,5.65m-1.15,27.92c0,3.44.88,6.12,2.64,8.05,1.76,1.93,3.97,2.89,6.6,2.89s4.72-.93,6.4-2.78c1.69-1.85,2.53-4.52,2.53-8.02,0-3.05-.86-5.51-2.58-7.36-1.72-1.85-3.9-2.78-6.53-2.78-3.05,0-5.33,1.05-6.82,3.16-1.5,2.1-2.24,4.39-2.24,6.85m-1.43-15.34c-3.23-1.36-5.58-3.24-7.05-5.63s-2.2-5-2.2-7.85c0-4.86,1.7-8.88,5.09-12.05,3.4-3.17,8.22-4.76,14.47-4.76s11.01,1.59,14.43,4.76c3.42,3.18,5.14,7.19,5.14,12.05,0,3.02-.79,5.72-2.36,8.07-1.57,2.36-3.78,4.16-6.63,5.4,3.61,1.45,6.36,3.57,8.25,6.36,1.89,2.78,2.82,6,2.82,9.65,0,6.02-1.92,10.91-5.76,14.67-3.84,3.77-8.94,5.65-15.32,5.65-5.93,0-10.86-1.56-14.8-4.67-4.66-3.67-6.98-8.71-6.98-15.12,0-3.53.88-6.76,2.63-9.72,1.74-2.95,4.51-5.22,8.27-6.82"/>
  <path class="cls-2" d="m159.78,136.7l12.45-1.29c.36,2.82,1.41,5.05,3.16,6.69,1.74,1.64,3.76,2.47,6.05,2.47,2.61,0,4.82-1.06,6.63-3.18,1.81-2.12,2.71-5.31,2.71-9.59,0-4-.9-7-2.69-9-1.8-2-4.13-3-7.01-3-3.59,0-6.8,1.59-9.65,4.76l-10.14-1.47,6.4-33.92h33.04v11.69h-23.56l-1.96,11.07c2.79-1.4,5.63-2.09,8.54-2.09,5.54,0,10.24,2.02,14.09,6.05,3.85,4.03,5.78,9.26,5.78,15.69,0,5.36-1.56,10.15-4.67,14.36-4.24,5.75-10.13,8.63-17.66,8.63-6.02,0-10.92-1.61-14.72-4.85-3.8-3.23-6.06-7.57-6.8-13.03"/>
</svg>