<?xml version="1.0" encoding="UTF-8"?>
<svg id="Calque_1" data-name="Calque 1" xmlns="http://www.w3.org/2000/svg" viewBox="0 0 250.72 250.72">
  <defs>
    <style>
      .cls-1 {
        fill: #fff;
      }

      .cls-2 {
        fill: #31678d;
      }
    </style>
  </defs>
  <path class="cls-1" d="m241.1,138.73l-102.31,102.3c-7.35,7.35-19.39,7.35-26.74,0L9.74,138.73c-7.35-7.35-7.35-19.39,0-26.74L112.05,9.69c7.35-7.35,19.39-7.35,26.74,0l102.31,102.3c7.35,7.35,7.35,19.39,0,26.74"/>
  <polygon class="cls-2" points="86.47 143.24 86.47 94.05 96.4 94.05 96.4 113.41 115.86 113.41 115.86 94.05 125.8 94.05 125.8 143.24 115.86 143.24 115.86 121.73 96.4 121.73 96.4 143.24 86.47 143.24"/>
  <path class="cls-2" d="m165.83,134.48v8.76h-33.05c.35-3.31,1.43-6.44,3.22-9.41,1.79-2.96,5.33-6.9,10.6-11.79,4.25-3.96,6.85-6.64,7.82-8.05,1.3-1.94,1.94-3.87,1.94-5.77,0-2.1-.56-3.72-1.7-4.85-1.13-1.13-2.69-1.7-4.68-1.7s-3.53.59-4.7,1.78c-1.16,1.19-1.84,3.15-2.01,5.9l-9.4-.94c.56-5.19,2.32-8.91,5.27-11.18,2.95-2.26,6.65-3.39,11.08-3.39,4.85,0,8.66,1.31,11.44,3.93,2.77,2.62,4.16,5.87,4.16,9.76,0,2.22-.4,4.32-1.19,6.32-.8,2-2.05,4.1-3.78,6.29-1.14,1.46-3.2,3.55-6.17,6.28-2.97,2.73-4.86,4.54-5.65,5.43-.8.89-1.44,1.77-1.93,2.62h18.72Z"/>
  <path class="cls-2" d="m125.36,7.96c-3.87,0-7.73,1.47-10.68,4.41L12.37,114.68c-2.84,2.84-4.4,6.63-4.4,10.68s1.56,7.84,4.4,10.68l102.31,102.31c5.89,5.89,15.47,5.88,21.36,0l102.31-102.31c2.84-2.84,4.4-6.63,4.4-10.68s-1.56-7.84-4.4-10.68L136.04,12.38c-2.94-2.94-6.81-4.41-10.68-4.41m0,242.4c-5.81,0-11.63-2.22-16.06-6.64L6.99,141.42c-4.27-4.27-6.63-9.98-6.63-16.06s2.36-11.78,6.63-16.06L109.3,7c8.86-8.86,23.26-8.85,32.12,0l102.31,102.3c4.27,4.27,6.63,9.98,6.63,16.06s-2.36,11.78-6.63,16.06l-102.31,102.3c-4.43,4.43-10.25,6.64-16.06,6.64"/>
</svg>