<?xml version="1.0" encoding="UTF-8"?>
<svg id="Calque_1" data-name="Calque 1" xmlns="http://www.w3.org/2000/svg" viewBox="0 0 250.72 250.72">
  <defs>
    <style>
      .cls-1 {
        fill: #fff;
      }

      .cls-2 {
        fill: #31678d;
      }
    </style>
  </defs>
  <path class="cls-1" d="m241.1,138.73l-102.31,102.3c-7.35,7.35-19.39,7.35-26.74,0L9.74,138.73c-7.35-7.35-7.35-19.39,0-26.74L112.05,9.69c7.35-7.35,19.39-7.35,26.74,0l102.31,102.3c7.35,7.35,7.35,19.39,0,26.74"/>
  <polygon class="cls-2" points="58.1 143.24 58.1 94.45 68.04 94.45 68.04 134.95 92.73 134.95 92.73 143.24 58.1 143.24"/>
  <polygon class="cls-2" points="99.91 143.24 99.91 94.05 109.57 94.05 129.71 126.9 129.71 94.05 138.94 94.05 138.94 143.24 128.97 143.24 109.14 111.16 109.14 143.24 99.91 143.24"/>
  <path class="cls-2" d="m172.32,125.15v-8.29h21.41v19.59c-2.08,2.01-5.1,3.79-9.04,5.32-3.95,1.53-7.95,2.3-12,2.3-5.14,0-9.63-1.08-13.45-3.24-3.83-2.16-6.7-5.24-8.62-9.26-1.92-4.01-2.89-8.39-2.89-13.1,0-5.12,1.07-9.67,3.22-13.66,2.15-3.98,5.29-7.04,9.43-9.16,3.16-1.64,7.08-2.45,11.78-2.45,6.11,0,10.88,1.28,14.31,3.84,3.43,2.56,5.64,6.1,6.63,10.62l-9.87,1.84c-.69-2.41-2-4.32-3.91-5.72-1.91-1.4-4.31-2.1-7.17-2.1-4.34,0-7.79,1.38-10.35,4.12-2.56,2.76-3.84,6.84-3.84,12.25,0,5.83,1.3,10.21,3.89,13.14,2.59,2.92,6,4.38,10.2,4.38,2.07,0,4.17-.41,6.26-1.23s3.88-1.8,5.38-2.97v-6.24h-11.37Z"/>
  <path class="cls-2" d="m125.36,7.96c-3.87,0-7.73,1.47-10.68,4.41L12.37,114.68c-2.84,2.84-4.4,6.63-4.4,10.68s1.56,7.84,4.4,10.68l102.31,102.31c5.9,5.89,15.48,5.88,21.36,0l102.31-102.31c2.84-2.84,4.4-6.63,4.4-10.68s-1.57-7.84-4.4-10.68L136.04,12.37c-2.94-2.94-6.81-4.41-10.68-4.41m0,242.4c-5.81,0-11.63-2.22-16.06-6.64L6.99,141.42c-4.27-4.27-6.63-9.98-6.63-16.06s2.36-11.78,6.63-16.06L109.3,7c8.86-8.85,23.26-8.85,32.12,0l102.31,102.3c4.27,4.27,6.63,9.98,6.63,16.06s-2.36,11.78-6.63,16.06l-102.31,102.3c-4.43,4.43-10.24,6.64-16.06,6.64"/>
</svg>