<?xml version="1.0" encoding="UTF-8"?>
<svg id="Calque_1" data-name="Calque 1" xmlns="http://www.w3.org/2000/svg" viewBox="0 0 250.72 250.72">
  <defs>
    <style>
      .cls-1 {
        fill: #fff;
      }

      .cls-2 {
        fill: #31678d;
      }
    </style>
  </defs>
  <path class="cls-1" d="m241.1,138.73l-102.31,102.3c-7.35,7.35-19.39,7.35-26.74,0L9.74,138.73c-7.35-7.35-7.35-19.39,0-26.74L112.05,9.69c7.35-7.35,19.39-7.35,26.74,0l102.31,102.3c7.35,7.35,7.35,19.39,0,26.74"/>
  <polygon class="cls-2" points="60 143.24 60 94.46 69.93 94.46 69.93 134.95 94.63 134.95 94.63 143.24 60 143.24"/>
  <path class="cls-2" d="m111.64,102.37v13.96h5.43c3.92,0,6.53-.26,7.85-.77s2.36-1.32,3.1-2.42c.75-1.09,1.12-2.37,1.12-3.82,0-1.79-.53-3.27-1.58-4.43-1.05-1.16-2.38-1.89-3.99-2.18-1.19-.22-3.57-.34-7.15-.34h-4.8Zm-9.93,40.87v-49.19h15.94c6.04,0,9.98.25,11.81.74,2.82.74,5.18,2.35,7.08,4.82,1.9,2.47,2.85,5.66,2.85,9.58,0,3.02-.55,5.56-1.64,7.62-1.1,2.06-2.49,3.67-4.18,4.85-1.68,1.18-3.41,1.96-5.15,2.33-2.37.47-5.8.71-10.3.71h-6.47v18.55h-9.93Z"/>
  <path class="cls-2" d="m170.43,125.15v-8.29h21.41v19.59c-2.08,2.01-5.09,3.79-9.04,5.32-3.95,1.53-7.95,2.3-12,2.3-5.15,0-9.63-1.08-13.46-3.24-3.82-2.16-6.7-5.24-8.62-9.26-1.92-4.01-2.88-8.39-2.88-13.1,0-5.12,1.07-9.67,3.22-13.66,2.15-3.98,5.29-7.04,9.43-9.16,3.15-1.64,7.08-2.45,11.78-2.45,6.11,0,10.87,1.28,14.31,3.84,3.44,2.56,5.65,6.1,6.63,10.62l-9.87,1.84c-.7-2.41-2-4.32-3.91-5.72-1.91-1.4-4.3-2.1-7.16-2.1-4.34,0-7.79,1.38-10.35,4.12-2.56,2.76-3.84,6.84-3.84,12.25,0,5.83,1.3,10.21,3.9,13.14,2.6,2.92,5.99,4.38,10.2,4.38,2.08,0,4.17-.41,6.26-1.23,2.1-.82,3.89-1.8,5.39-2.97v-6.24h-11.37Z"/>
  <path class="cls-2" d="m125.36,7.96c-3.86,0-7.73,1.47-10.68,4.41L12.37,114.68c-2.84,2.84-4.4,6.63-4.4,10.68s1.56,7.84,4.4,10.68l102.31,102.31c5.89,5.89,15.48,5.88,21.36,0l102.31-102.31c2.84-2.84,4.4-6.63,4.4-10.68s-1.57-7.84-4.4-10.68L136.04,12.38c-2.94-2.94-6.81-4.41-10.68-4.41m0,242.4c-5.81,0-11.63-2.22-16.06-6.64L6.99,141.42c-4.27-4.27-6.63-9.98-6.63-16.06s2.36-11.78,6.63-16.06L109.3,7c8.86-8.86,23.27-8.86,32.12,0l102.31,102.3c4.27,4.27,6.63,9.98,6.63,16.06s-2.36,11.78-6.63,16.06l-102.31,102.3c-4.43,4.43-10.24,6.64-16.06,6.64"/>
</svg>