<?xml version="1.0" encoding="UTF-8"?>
<svg id="Calque_1" data-name="Calque 1" xmlns="http://www.w3.org/2000/svg" viewBox="0 0 250.72 250.72">
  <defs>
    <style>
      .cls-1 {
        fill: #fff;
      }

      .cls-2 {
        fill: #e18630;
      }
    </style>
  </defs>
  <path class="cls-1" d="m219.88,244.91H30.31c-13.62,0-24.77-11.15-24.77-24.77V30.58c0-13.63,11.15-24.77,24.77-24.77h189.56c13.63,0,24.77,11.14,24.77,24.77v189.56c0,13.62-11.14,24.77-24.77,24.77"/>
  <path class="cls-2" d="m62.39,126.57v17.23h12.05c4.69,0,7.66-.14,8.92-.4,1.93-.35,3.51-1.21,4.73-2.57,1.22-1.36,1.82-3.19,1.82-5.47,0-1.93-.47-3.57-1.41-4.92-.94-1.35-2.29-2.34-4.07-2.95-1.77-.61-5.62-.92-11.54-.92h-10.51Zm0-25.63v14.9h8.53c5.07,0,8.22-.07,9.45-.22,2.23-.27,3.98-1.03,5.25-2.31,1.28-1.27,1.91-2.95,1.91-5.03s-.55-3.61-1.65-4.85c-1.1-1.25-2.73-2.01-4.9-2.27-1.29-.15-4.99-.22-11.12-.22h-7.47Zm-13.01-10.72h25.76c5.1,0,8.9.21,11.41.64,2.51.43,4.75,1.31,6.73,2.66s3.63,3.14,4.94,5.39c1.32,2.24,1.98,4.76,1.98,7.54,0,3.02-.81,5.78-2.44,8.31-1.63,2.52-3.84,4.41-6.62,5.67,3.93,1.14,6.95,3.09,9.06,5.85s3.17,5.99,3.17,9.71c0,2.93-.68,5.78-2.05,8.55-1.36,2.77-3.22,4.98-5.58,6.64-2.36,1.66-5.27,2.68-8.73,3.06-2.17.23-7.4.38-15.69.44h-21.93v-64.44Z"/>
  <path class="cls-2" d="m143.23,154.66h-12.35v-46.56c-4.51,4.22-9.83,7.34-15.96,9.36v-11.21c3.22-1.05,6.73-3.06,10.51-6,3.78-2.94,6.37-6.38,7.78-10.31h10.02v64.71Z"/>
  <path class="cls-2" d="m182.58,100.19c-1.49,0-2.83.48-4,1.43-1.17.95-2.08,2.66-2.73,5.12-.85,3.2-1.27,8.57-1.27,16.14s.38,12.76,1.14,15.58c.76,2.83,1.72,4.71,2.88,5.65,1.15.94,2.48,1.41,3.98,1.41s2.83-.48,4-1.43c1.17-.95,2.08-2.66,2.73-5.13.85-3.17,1.27-8.53,1.27-16.09s-.38-12.76-1.14-15.59c-.76-2.82-1.72-4.72-2.88-5.67-1.15-.95-2.48-1.43-3.98-1.43m0-10.25c6.24,0,11.12,2.23,14.64,6.68,4.19,5.27,6.29,14.02,6.29,26.25s-2.11,20.96-6.33,26.29c-3.49,4.4-8.35,6.6-14.6,6.6s-11.32-2.41-15.17-7.23c-3.84-4.82-5.76-13.42-5.76-25.78s2.11-20.87,6.32-26.2c3.49-4.4,8.35-6.6,14.6-6.6"/>
  <path class="cls-2" d="m30.58,10.79c-10.91,0-19.79,8.88-19.79,19.79v189.56c0,10.91,8.88,19.79,19.79,19.79h189.56c10.92,0,19.79-8.88,19.79-19.79V30.58c0-10.91-8.88-19.79-19.79-19.79H30.58Zm189.56,239.1H30.58c-16.4,0-29.75-13.35-29.75-29.75V30.58C.83,14.17,14.17.83,30.58.83h189.56c16.4,0,29.75,13.35,29.75,29.75v189.56c0,16.4-13.35,29.75-29.75,29.75"/>
</svg>