<?xml version="1.0" encoding="UTF-8"?>
<svg id="Calque_1" data-name="Calque 1" xmlns="http://www.w3.org/2000/svg" viewBox="0 0 250.72 250.72">
  <defs>
    <style>
      .cls-1 {
        fill: #fff;
      }

      .cls-2 {
        fill: #6eae45;
      }
    </style>
  </defs>
  <path class="cls-1" d="m245.66,125.36c0,66.45-53.87,120.32-120.32,120.32S5.02,191.81,5.02,125.36,58.89,5.04,125.34,5.04s120.32,53.87,120.32,120.32"/>
  <path class="cls-2" d="m125.36,10.08C61.79,10.08,10.07,61.8,10.07,125.36s51.72,115.28,115.28,115.28,115.28-51.72,115.28-115.28S188.93,10.08,125.36,10.08m0,240.64C56.23,250.72,0,194.48,0,125.36S56.23,0,125.36,0s125.36,56.24,125.36,125.36-56.24,125.36-125.36,125.36"/>
  <polygon class="cls-2" points="51.44 153.46 51.44 88.27 99.77 88.27 99.77 99.3 64.6 99.3 64.6 113.75 97.33 113.75 97.33 124.74 64.6 124.74 64.6 142.48 101.02 142.48 101.02 153.46 51.44 153.46"/>
  <path class="cls-2" d="m141.39,153.46h-12.5v-47.09c-4.56,4.27-9.94,7.43-16.14,9.47v-11.34c3.26-1.06,6.8-3.09,10.63-6.06,3.82-2.98,6.44-6.46,7.87-10.43h10.14v65.45Z"/>
  <path class="cls-2" d="m181.19,98.37c-1.51,0-2.86.48-4.05,1.45-1.19.96-2.1,2.69-2.76,5.18-.86,3.23-1.29,8.67-1.29,16.32s.39,12.9,1.15,15.76c.77,2.86,1.74,4.77,2.92,5.71,1.17.95,2.51,1.43,4.02,1.43s2.86-.48,4.05-1.44c1.19-.97,2.1-2.69,2.76-5.18.86-3.2,1.29-8.63,1.29-16.27s-.39-12.9-1.15-15.76c-.77-2.86-1.74-4.77-2.92-5.73-1.17-.97-2.51-1.45-4.02-1.45m0-10.36c6.31,0,11.25,2.26,14.81,6.76,4.24,5.34,6.36,14.19,6.36,26.55s-2.14,21.2-6.4,26.59c-3.53,4.45-8.45,6.67-14.76,6.67s-11.46-2.44-15.34-7.31c-3.88-4.88-5.82-13.57-5.82-26.08s2.14-21.11,6.4-26.5c3.53-4.45,8.45-6.67,14.76-6.67"/>
</svg>