<?xml version="1.0" encoding="UTF-8"?>
<svg id="Calque_1" data-name="Calque 1" xmlns="http://www.w3.org/2000/svg" viewBox="0 0 250.72 250.72">
  <defs>
    <style>
      .cls-1 {
        fill: #fff;
      }

      .cls-2 {
        fill: #e18630;
      }
    </style>
  </defs>
  <path class="cls-1" d="m219.87,244.91H30.32c-13.63,0-24.78-11.15-24.78-24.77V30.58c0-13.63,11.15-24.77,24.78-24.77h189.56c13.63,0,24.77,11.14,24.77,24.77v189.56c0,13.62-11.14,24.77-24.77,24.77"/>
  <polygon class="cls-2" points="41.15 154.66 63.18 121.03 43.22 90.21 58.43 90.21 71.36 110.91 84.02 90.21 99.1 90.21 79.05 121.51 101.08 154.66 85.38 154.66 71.09 132.37 56.76 154.66 41.15 154.66"/>
  <polygon class="cls-2" points="122.26 154.66 122.26 101.11 103.14 101.11 103.14 90.21 154.36 90.21 154.36 101.11 135.27 101.11 135.27 154.66 122.26 154.66"/>
  <polygon class="cls-2" points="163.1 154.66 163.1 90.74 176.11 90.74 176.11 143.8 208.47 143.8 208.47 154.66 163.1 154.66"/>
  <path class="cls-2" d="m30.58,10.79c-10.92,0-19.79,8.88-19.79,19.79v189.56c0,10.91,8.88,19.79,19.79,19.79h189.56c10.91,0,19.79-8.88,19.79-19.79V30.58c0-10.91-8.88-19.79-19.79-19.79H30.58Zm189.56,239.1H30.58c-16.41,0-29.75-13.35-29.75-29.75V30.58C.83,14.17,14.17.83,30.58.83h189.56c16.4,0,29.75,13.35,29.75,29.75v189.56c0,16.4-13.35,29.75-29.75,29.75"/>
</svg>